<?xml version="1.0" standalone="no"?>
<!DOCTYPE svg PUBLIC "-//W3C//DTD SVG 20010904//EN"
 "http://www.w3.org/TR/2001/REC-SVG-20010904/DTD/svg10.dtd">
<svg version="1.0" xmlns="http://www.w3.org/2000/svg"
 width="337.000000pt" height="337.000000pt" viewBox="0 0 337.000000 337.000000"
 preserveAspectRatio="xMidYMid meet">
<metadata>
Created by potrace 1.11, written by Peter Selinger 2001-2013
</metadata>
<g transform="translate(0.000000,337.000000) scale(0.100000,-0.100000)"
fill="#000000" stroke="none">
<path d="M425 3358 c-115 -13 -206 -58 -277 -137 -84 -93 -78 23 -78 -1530 0
-1520 -3 -1436 63 -1522 39 -52 109 -103 179 -132 l53 -22 1295 -2 c1099 -3
1303 -1 1349 11 128 35 219 104 268 204 l28 57 0 1395 c-1 1363 -1 1396 -20
1449 -37 99 -153 191 -281 222 -54 13 -2469 20 -2579 7z m2457 -963 c3 -14 2
-27 -1 -30 -4 -2 -8 10 -9 26 -3 36 4 38 10 4z"/>
</g>
</svg>
